<mxfile host="app.diagrams.net" modified="2022-02-10T03:58:50.258Z" agent="5.0 (Macintosh; Intel Mac OS X 10_15_7) AppleWebKit/605.1.15 (KHTML, like Gecko) Version/15.2 Safari/605.1.15" etag="sDaWrWMvqNIQw6zvJEza" version="16.5.5" type="github">
  <diagram id="_d4E_NHFO41zGW4D-v9T" name="Page-1">
    <mxGraphModel dx="541" dy="369" grid="0" gridSize="10" guides="1" tooltips="1" connect="1" arrows="1" fold="1" page="1" pageScale="1" pageWidth="827" pageHeight="1169" math="0" shadow="0">
      <root>
        <mxCell id="0" />
        <mxCell id="1" parent="0" />
        <mxCell id="DOKbZiQG-BSJzf7dDZmI-1" value="" style="endArrow=none;html=1;rounded=0;strokeWidth=2;" edge="1" parent="1">
          <mxGeometry width="50" height="50" relative="1" as="geometry">
            <mxPoint x="120" y="240" as="sourcePoint" />
            <mxPoint x="570" y="240" as="targetPoint" />
          </mxGeometry>
        </mxCell>
        <mxCell id="DOKbZiQG-BSJzf7dDZmI-3" value="" style="endArrow=none;html=1;rounded=0;strokeWidth=2;" edge="1" parent="1">
          <mxGeometry width="50" height="50" relative="1" as="geometry">
            <mxPoint x="120" y="240" as="sourcePoint" />
            <mxPoint x="120" y="40" as="targetPoint" />
          </mxGeometry>
        </mxCell>
        <mxCell id="DOKbZiQG-BSJzf7dDZmI-4" value="" style="endArrow=none;html=1;rounded=0;strokeWidth=2;" edge="1" parent="1">
          <mxGeometry width="50" height="50" relative="1" as="geometry">
            <mxPoint x="570" y="240" as="sourcePoint" />
            <mxPoint x="570" y="40" as="targetPoint" />
          </mxGeometry>
        </mxCell>
        <mxCell id="DOKbZiQG-BSJzf7dDZmI-5" value="" style="endArrow=none;html=1;rounded=0;strokeWidth=2;" edge="1" parent="1">
          <mxGeometry width="50" height="50" relative="1" as="geometry">
            <mxPoint x="120" y="40" as="sourcePoint" />
            <mxPoint x="520" y="40" as="targetPoint" />
          </mxGeometry>
        </mxCell>
        <mxCell id="DOKbZiQG-BSJzf7dDZmI-6" value="" style="endArrow=none;html=1;rounded=0;strokeWidth=2;" edge="1" parent="1">
          <mxGeometry width="50" height="50" relative="1" as="geometry">
            <mxPoint x="550" y="40" as="sourcePoint" />
            <mxPoint x="570" y="40" as="targetPoint" />
          </mxGeometry>
        </mxCell>
        <mxCell id="DOKbZiQG-BSJzf7dDZmI-7" value="" style="endArrow=none;html=1;rounded=0;strokeWidth=2;" edge="1" parent="1">
          <mxGeometry width="50" height="50" relative="1" as="geometry">
            <mxPoint x="519" y="40" as="sourcePoint" />
            <mxPoint x="519" y="24" as="targetPoint" />
          </mxGeometry>
        </mxCell>
        <mxCell id="DOKbZiQG-BSJzf7dDZmI-10" value="" style="endArrow=none;html=1;rounded=0;strokeWidth=2;" edge="1" parent="1">
          <mxGeometry width="50" height="50" relative="1" as="geometry">
            <mxPoint x="470" y="125" as="sourcePoint" />
            <mxPoint x="570" y="125" as="targetPoint" />
          </mxGeometry>
        </mxCell>
        <mxCell id="DOKbZiQG-BSJzf7dDZmI-11" value="" style="endArrow=none;html=1;rounded=0;strokeWidth=2;" edge="1" parent="1">
          <mxGeometry width="50" height="50" relative="1" as="geometry">
            <mxPoint x="470" y="150" as="sourcePoint" />
            <mxPoint x="470" y="240" as="targetPoint" />
          </mxGeometry>
        </mxCell>
        <mxCell id="DOKbZiQG-BSJzf7dDZmI-12" value="" style="endArrow=none;html=1;rounded=0;strokeWidth=2;startSize=0;targetPerimeterSpacing=0;endSize=7;" edge="1" parent="1">
          <mxGeometry width="50" height="50" relative="1" as="geometry">
            <mxPoint x="470" y="124" as="sourcePoint" />
            <mxPoint x="470" y="132" as="targetPoint" />
          </mxGeometry>
        </mxCell>
        <mxCell id="DOKbZiQG-BSJzf7dDZmI-13" value="" style="endArrow=none;html=1;rounded=0;strokeWidth=2;" edge="1" parent="1">
          <mxGeometry width="50" height="50" relative="1" as="geometry">
            <mxPoint x="470" y="131" as="sourcePoint" />
            <mxPoint x="450" y="131" as="targetPoint" />
          </mxGeometry>
        </mxCell>
        <mxCell id="DOKbZiQG-BSJzf7dDZmI-14" value="" style="endArrow=none;html=1;rounded=0;strokeWidth=2;" edge="1" parent="1">
          <mxGeometry width="50" height="50" relative="1" as="geometry">
            <mxPoint x="550" y="41" as="sourcePoint" />
            <mxPoint x="550" y="25" as="targetPoint" />
          </mxGeometry>
        </mxCell>
        <mxCell id="DOKbZiQG-BSJzf7dDZmI-15" value="办公桌" style="rounded=0;whiteSpace=wrap;html=1;direction=south;" vertex="1" parent="1">
          <mxGeometry x="505" y="160" width="30" height="60" as="geometry" />
        </mxCell>
        <mxCell id="DOKbZiQG-BSJzf7dDZmI-16" value="" style="whiteSpace=wrap;html=1;aspect=fixed;fillColor=#000000;" vertex="1" parent="1">
          <mxGeometry x="510" y="220" width="20" height="20" as="geometry" />
        </mxCell>
        <mxCell id="DOKbZiQG-BSJzf7dDZmI-17" value="" style="whiteSpace=wrap;html=1;aspect=fixed;fillColor=#000000;" vertex="1" parent="1">
          <mxGeometry x="180" y="220" width="20" height="20" as="geometry" />
        </mxCell>
        <mxCell id="DOKbZiQG-BSJzf7dDZmI-18" value="" style="whiteSpace=wrap;html=1;aspect=fixed;fillColor=#000000;" vertex="1" parent="1">
          <mxGeometry x="330" y="220" width="20" height="20" as="geometry" />
        </mxCell>
        <mxCell id="DOKbZiQG-BSJzf7dDZmI-19" value="办公桌" style="rounded=0;whiteSpace=wrap;html=1;direction=west;" vertex="1" parent="1">
          <mxGeometry x="210" y="160" width="110" height="50" as="geometry" />
        </mxCell>
        <mxCell id="DOKbZiQG-BSJzf7dDZmI-20" value="办公桌" style="rounded=0;whiteSpace=wrap;html=1;direction=west;" vertex="1" parent="1">
          <mxGeometry x="280" y="60" width="110" height="50" as="geometry" />
        </mxCell>
        <mxCell id="DOKbZiQG-BSJzf7dDZmI-21" value="" style="endArrow=open;startArrow=open;html=1;rounded=0;strokeWidth=1;startFill=0;endFill=0;" edge="1" parent="1">
          <mxGeometry width="50" height="50" relative="1" as="geometry">
            <mxPoint x="120" y="260" as="sourcePoint" />
            <mxPoint x="570" y="260" as="targetPoint" />
          </mxGeometry>
        </mxCell>
        <mxCell id="DOKbZiQG-BSJzf7dDZmI-22" value="1689cm" style="edgeLabel;html=1;align=center;verticalAlign=middle;resizable=0;points=[];" vertex="1" connectable="0" parent="DOKbZiQG-BSJzf7dDZmI-21">
          <mxGeometry x="-0.0385" y="-1" relative="1" as="geometry">
            <mxPoint as="offset" />
          </mxGeometry>
        </mxCell>
        <mxCell id="DOKbZiQG-BSJzf7dDZmI-23" value="" style="endArrow=open;startArrow=open;html=1;rounded=0;strokeWidth=1;startFill=0;endFill=0;" edge="1" parent="1">
          <mxGeometry width="50" height="50" relative="1" as="geometry">
            <mxPoint x="590" y="240" as="sourcePoint" />
            <mxPoint x="590" y="40" as="targetPoint" />
          </mxGeometry>
        </mxCell>
        <mxCell id="DOKbZiQG-BSJzf7dDZmI-24" value="754cm" style="edgeLabel;html=1;align=center;verticalAlign=middle;resizable=0;points=[];" vertex="1" connectable="0" parent="DOKbZiQG-BSJzf7dDZmI-23">
          <mxGeometry x="0.195" y="2" relative="1" as="geometry">
            <mxPoint as="offset" />
          </mxGeometry>
        </mxCell>
        <mxCell id="DOKbZiQG-BSJzf7dDZmI-25" value="" style="endArrow=open;startArrow=open;html=1;rounded=0;strokeWidth=1;startFill=0;endFill=0;" edge="1" parent="1">
          <mxGeometry width="50" height="50" relative="1" as="geometry">
            <mxPoint x="470" y="110" as="sourcePoint" />
            <mxPoint x="570" y="110" as="targetPoint" />
          </mxGeometry>
        </mxCell>
        <mxCell id="DOKbZiQG-BSJzf7dDZmI-26" value="376cm" style="edgeLabel;html=1;align=center;verticalAlign=middle;resizable=0;points=[];" vertex="1" connectable="0" parent="DOKbZiQG-BSJzf7dDZmI-25">
          <mxGeometry x="-0.0385" y="-1" relative="1" as="geometry">
            <mxPoint as="offset" />
          </mxGeometry>
        </mxCell>
        <mxCell id="DOKbZiQG-BSJzf7dDZmI-27" value="" style="endArrow=open;startArrow=open;html=1;rounded=0;strokeWidth=1;startFill=0;endFill=0;" edge="1" parent="1">
          <mxGeometry width="50" height="50" relative="1" as="geometry">
            <mxPoint x="440" y="240" as="sourcePoint" />
            <mxPoint x="440" y="120" as="targetPoint" />
          </mxGeometry>
        </mxCell>
        <mxCell id="DOKbZiQG-BSJzf7dDZmI-28" value="424cm" style="edgeLabel;html=1;align=center;verticalAlign=middle;resizable=0;points=[];" vertex="1" connectable="0" parent="DOKbZiQG-BSJzf7dDZmI-27">
          <mxGeometry x="0.195" y="2" relative="1" as="geometry">
            <mxPoint as="offset" />
          </mxGeometry>
        </mxCell>
        <mxCell id="DOKbZiQG-BSJzf7dDZmI-29" value="大门" style="text;html=1;strokeColor=none;fillColor=none;align=center;verticalAlign=middle;whiteSpace=wrap;rounded=0;" vertex="1" parent="1">
          <mxGeometry x="505" y="4" width="60" height="30" as="geometry" />
        </mxCell>
        <mxCell id="DOKbZiQG-BSJzf7dDZmI-30" value="南宁禾田信息港2栋503-2 平面布局图&lt;br&gt;" style="text;html=1;strokeColor=none;fillColor=none;align=center;verticalAlign=middle;whiteSpace=wrap;rounded=0;fontStyle=1" vertex="1" parent="1">
          <mxGeometry x="243" y="296" width="221" height="30" as="geometry" />
        </mxCell>
      </root>
    </mxGraphModel>
  </diagram>
</mxfile>
